<?xml version="1.0" encoding="UTF-8"?>
<mxfile host="app.diagrams.net" modified="2021-05-14T16:50:38.926Z" agent="5.0 (Windows NT 10.0; Win64; x64) AppleWebKit/537.36 (KHTML, like Gecko) Chrome/90.0.4430.212 Safari/537.36" etag="tMQHOqBGh7bydb6Vb1Kx" version="14.6.13" type="google">
  <diagram id="8WlZShX07gMDmEgz20Bs" name="Page-1">
    <mxGraphModel dx="780" dy="412" grid="1" gridSize="10" guides="1" tooltips="1" connect="1" arrows="1" fold="1" page="1" pageScale="1" pageWidth="827" pageHeight="1169" math="0" shadow="0">
      <root>
        <mxCell id="0" />
        <mxCell id="1" parent="0" />
        <mxCell id="yK5OtRo2Y7pRDRAagn9F-8" value="" style="rounded=0;whiteSpace=wrap;html=1;" parent="1" vertex="1">
          <mxGeometry x="368" y="440" width="742" height="210" as="geometry" />
        </mxCell>
        <mxCell id="gGBzYbK5EXgPb6j0K3wS-2" value="Manager" style="shape=umlActor;verticalLabelPosition=bottom;verticalAlign=top;html=1;outlineConnect=0;" parent="1" vertex="1">
          <mxGeometry x="140" y="120" width="30" height="60" as="geometry" />
        </mxCell>
        <mxCell id="gGBzYbK5EXgPb6j0K3wS-5" value=":ViewController" style="rounded=0;whiteSpace=wrap;html=1;" parent="1" vertex="1">
          <mxGeometry x="285" y="120" width="120" height="60" as="geometry" />
        </mxCell>
        <mxCell id="gGBzYbK5EXgPb6j0K3wS-7" value="" style="endArrow=none;html=1;" parent="1" edge="1">
          <mxGeometry width="50" height="50" relative="1" as="geometry">
            <mxPoint x="345.0000000000002" y="230" as="sourcePoint" />
            <mxPoint x="344.4999999999998" y="180" as="targetPoint" />
          </mxGeometry>
        </mxCell>
        <mxCell id="gGBzYbK5EXgPb6j0K3wS-8" value="" style="rounded=0;whiteSpace=wrap;html=1;" parent="1" vertex="1">
          <mxGeometry x="340" y="230" width="10" height="40" as="geometry" />
        </mxCell>
        <mxCell id="gGBzYbK5EXgPb6j0K3wS-10" value=":Controller" style="rounded=0;whiteSpace=wrap;html=1;" parent="1" vertex="1">
          <mxGeometry x="430" y="120" width="120" height="60" as="geometry" />
        </mxCell>
        <mxCell id="gGBzYbK5EXgPb6j0K3wS-11" value=":SearchBarView" style="rounded=0;whiteSpace=wrap;html=1;" parent="1" vertex="1">
          <mxGeometry x="580" y="120" width="120" height="60" as="geometry" />
        </mxCell>
        <mxCell id="gGBzYbK5EXgPb6j0K3wS-12" value="" style="endArrow=none;html=1;exitX=0.5;exitY=0;exitDx=0;exitDy=0;" parent="1" source="gGBzYbK5EXgPb6j0K3wS-13" edge="1">
          <mxGeometry width="50" height="50" relative="1" as="geometry">
            <mxPoint x="639.5" y="240" as="sourcePoint" />
            <mxPoint x="639.5" y="180" as="targetPoint" />
          </mxGeometry>
        </mxCell>
        <mxCell id="gGBzYbK5EXgPb6j0K3wS-13" value="" style="rounded=0;whiteSpace=wrap;html=1;" parent="1" vertex="1">
          <mxGeometry x="635" y="250" width="10" height="60" as="geometry" />
        </mxCell>
        <mxCell id="gGBzYbK5EXgPb6j0K3wS-14" value="searchGuestPage = render()" style="text;html=1;strokeColor=none;fillColor=none;align=center;verticalAlign=middle;whiteSpace=wrap;rounded=0;" parent="1" vertex="1">
          <mxGeometry x="467.5" y="250" width="160" height="20" as="geometry" />
        </mxCell>
        <mxCell id="gGBzYbK5EXgPb6j0K3wS-15" value="" style="endArrow=classic;html=1;entryX=0;entryY=0;entryDx=0;entryDy=0;" parent="1" target="gGBzYbK5EXgPb6j0K3wS-13" edge="1">
          <mxGeometry width="50" height="50" relative="1" as="geometry">
            <mxPoint x="350" y="250" as="sourcePoint" />
            <mxPoint x="620" y="250" as="targetPoint" />
          </mxGeometry>
        </mxCell>
        <mxCell id="gGBzYbK5EXgPb6j0K3wS-18" value="" style="endArrow=classic;html=1;exitX=0.1;exitY=0.65;exitDx=0;exitDy=0;exitPerimeter=0;" parent="1" source="gGBzYbK5EXgPb6j0K3wS-13" edge="1">
          <mxGeometry width="50" height="50" relative="1" as="geometry">
            <mxPoint x="620" y="290" as="sourcePoint" />
            <mxPoint x="154" y="290" as="targetPoint" />
          </mxGeometry>
        </mxCell>
        <mxCell id="gGBzYbK5EXgPb6j0K3wS-19" value="result displayed" style="text;html=1;strokeColor=none;fillColor=none;align=center;verticalAlign=middle;whiteSpace=wrap;rounded=0;" parent="1" vertex="1">
          <mxGeometry x="180" y="290" width="90" height="20" as="geometry" />
        </mxCell>
        <mxCell id="gGBzYbK5EXgPb6j0K3wS-24" value="" style="endArrow=classic;html=1;entryX=0;entryY=0;entryDx=0;entryDy=0;exitX=0;exitY=0;exitDx=0;exitDy=0;" parent="1" source="gGBzYbK5EXgPb6j0K3wS-27" target="gGBzYbK5EXgPb6j0K3wS-26" edge="1">
          <mxGeometry width="50" height="50" relative="1" as="geometry">
            <mxPoint x="60" y="370" as="sourcePoint" />
            <mxPoint x="490" y="370" as="targetPoint" />
          </mxGeometry>
        </mxCell>
        <mxCell id="gGBzYbK5EXgPb6j0K3wS-25" value="" style="endArrow=none;html=1;exitX=0.5;exitY=0;exitDx=0;exitDy=0;" parent="1" source="gGBzYbK5EXgPb6j0K3wS-26" edge="1">
          <mxGeometry width="50" height="50" relative="1" as="geometry">
            <mxPoint x="490" y="360" as="sourcePoint" />
            <mxPoint x="489.5" y="180" as="targetPoint" />
          </mxGeometry>
        </mxCell>
        <mxCell id="gGBzYbK5EXgPb6j0K3wS-26" value="" style="rounded=0;whiteSpace=wrap;html=1;" parent="1" vertex="1">
          <mxGeometry x="484" y="370" width="10" height="70" as="geometry" />
        </mxCell>
        <mxCell id="gGBzYbK5EXgPb6j0K3wS-28" value=":DBConnection" style="rounded=0;whiteSpace=wrap;html=1;" parent="1" vertex="1">
          <mxGeometry x="730" y="120" width="120" height="60" as="geometry" />
        </mxCell>
        <mxCell id="gGBzYbK5EXgPb6j0K3wS-31" value="Database" style="shape=umlActor;verticalLabelPosition=bottom;verticalAlign=top;html=1;outlineConnect=0;" parent="1" vertex="1">
          <mxGeometry x="1060" y="120" width="29" height="60" as="geometry" />
        </mxCell>
        <mxCell id="gGBzYbK5EXgPb6j0K3wS-32" value="" style="endArrow=classic;html=1;entryX=0;entryY=0;entryDx=0;entryDy=0;" parent="1" target="gGBzYbK5EXgPb6j0K3wS-62" edge="1">
          <mxGeometry width="50" height="50" relative="1" as="geometry">
            <mxPoint x="493.38" y="480" as="sourcePoint" />
            <mxPoint x="758.38" y="480" as="targetPoint" />
          </mxGeometry>
        </mxCell>
        <mxCell id="gGBzYbK5EXgPb6j0K3wS-34" value="guestList = retrieve(ID or name)" style="text;html=1;strokeColor=none;fillColor=none;align=center;verticalAlign=middle;whiteSpace=wrap;rounded=0;" parent="1" vertex="1">
          <mxGeometry x="528.38" y="480" width="250" height="20" as="geometry" />
        </mxCell>
        <mxCell id="gGBzYbK5EXgPb6j0K3wS-35" value="" style="endArrow=classic;html=1;exitX=0.662;exitY=0.25;exitDx=0;exitDy=0;exitPerimeter=0;" parent="1" edge="1">
          <mxGeometry width="50" height="50" relative="1" as="geometry">
            <mxPoint x="786" y="495" as="sourcePoint" />
            <mxPoint x="1076" y="495" as="targetPoint" />
          </mxGeometry>
        </mxCell>
        <mxCell id="gGBzYbK5EXgPb6j0K3wS-36" style="edgeStyle=orthogonalEdgeStyle;rounded=0;orthogonalLoop=1;jettySize=auto;html=1;entryX=0.5;entryY=1;entryDx=0;entryDy=0;strokeColor=none;" parent="1" edge="1">
          <mxGeometry relative="1" as="geometry">
            <mxPoint x="1080" y="410" as="sourcePoint" />
            <mxPoint x="1080" y="180" as="targetPoint" />
          </mxGeometry>
        </mxCell>
        <mxCell id="gGBzYbK5EXgPb6j0K3wS-37" value="retrieve records" style="text;html=1;strokeColor=none;fillColor=none;align=center;verticalAlign=middle;whiteSpace=wrap;rounded=0;" parent="1" vertex="1">
          <mxGeometry x="980" y="470" width="90" height="30" as="geometry" />
        </mxCell>
        <mxCell id="gGBzYbK5EXgPb6j0K3wS-38" value="" style="endArrow=classic;html=1;dashed=1;entryX=0.662;entryY=0.75;entryDx=0;entryDy=0;entryPerimeter=0;" parent="1" target="gGBzYbK5EXgPb6j0K3wS-62" edge="1">
          <mxGeometry width="50" height="50" relative="1" as="geometry">
            <mxPoint x="1074" y="525" as="sourcePoint" />
            <mxPoint x="860" y="525" as="targetPoint" />
          </mxGeometry>
        </mxCell>
        <mxCell id="gGBzYbK5EXgPb6j0K3wS-39" value="result" style="text;html=1;strokeColor=none;fillColor=none;align=center;verticalAlign=middle;whiteSpace=wrap;rounded=0;" parent="1" vertex="1">
          <mxGeometry x="800" y="520" width="40" height="30" as="geometry" />
        </mxCell>
        <mxCell id="gGBzYbK5EXgPb6j0K3wS-41" value="" style="endArrow=none;html=1;entryX=0.5;entryY=1;entryDx=0;entryDy=0;startArrow=none;exitX=0.5;exitY=0;exitDx=0;exitDy=0;" parent="1" target="gGBzYbK5EXgPb6j0K3wS-8" edge="1">
          <mxGeometry width="50" height="50" relative="1" as="geometry">
            <mxPoint x="345" y="680" as="sourcePoint" />
            <mxPoint x="344.76" y="310" as="targetPoint" />
          </mxGeometry>
        </mxCell>
        <mxCell id="gGBzYbK5EXgPb6j0K3wS-62" value="" style="rounded=0;whiteSpace=wrap;html=1;" parent="1" vertex="1">
          <mxGeometry x="783.38" y="480" width="10" height="60" as="geometry" />
        </mxCell>
        <mxCell id="gGBzYbK5EXgPb6j0K3wS-63" value="" style="endArrow=none;html=1;entryX=0.5;entryY=0;entryDx=0;entryDy=0;" parent="1" target="gGBzYbK5EXgPb6j0K3wS-62" edge="1">
          <mxGeometry width="50" height="50" relative="1" as="geometry">
            <mxPoint x="789.4099999999999" y="180" as="sourcePoint" />
            <mxPoint x="790" y="520" as="targetPoint" />
          </mxGeometry>
        </mxCell>
        <mxCell id="gGBzYbK5EXgPb6j0K3wS-65" value="" style="endArrow=none;html=1;" parent="1" edge="1">
          <mxGeometry width="50" height="50" relative="1" as="geometry">
            <mxPoint x="160" y="680" as="sourcePoint" />
            <mxPoint x="153.5" y="200" as="targetPoint" />
          </mxGeometry>
        </mxCell>
        <mxCell id="gGBzYbK5EXgPb6j0K3wS-68" value="" style="endArrow=none;html=1;" parent="1" edge="1">
          <mxGeometry width="50" height="50" relative="1" as="geometry">
            <mxPoint x="1075" y="680" as="sourcePoint" />
            <mxPoint x="1074.5" y="200" as="targetPoint" />
          </mxGeometry>
        </mxCell>
        <mxCell id="gGBzYbK5EXgPb6j0K3wS-72" value="" style="endArrow=none;html=1;" parent="1" edge="1">
          <mxGeometry width="50" height="50" relative="1" as="geometry">
            <mxPoint x="640" y="680" as="sourcePoint" />
            <mxPoint x="640" y="310" as="targetPoint" />
          </mxGeometry>
        </mxCell>
        <mxCell id="gGBzYbK5EXgPb6j0K3wS-27" value="search guest request(ID : int or name : string, token : string)" style="text;html=1;strokeColor=none;fillColor=none;align=center;verticalAlign=middle;whiteSpace=wrap;rounded=0;" parent="1" vertex="1">
          <mxGeometry x="154" y="370" width="330" height="20" as="geometry" />
        </mxCell>
        <mxCell id="yK5OtRo2Y7pRDRAagn9F-1" value="Authenticator" style="rounded=0;whiteSpace=wrap;html=1;" parent="1" vertex="1">
          <mxGeometry x="880" y="120" width="120" height="60" as="geometry" />
        </mxCell>
        <mxCell id="yK5OtRo2Y7pRDRAagn9F-2" value="" style="endArrow=none;html=1;startArrow=none;" parent="1" source="yK5OtRo2Y7pRDRAagn9F-3" edge="1">
          <mxGeometry width="50" height="50" relative="1" as="geometry">
            <mxPoint x="940" y="520" as="sourcePoint" />
            <mxPoint x="940" y="180" as="targetPoint" />
          </mxGeometry>
        </mxCell>
        <mxCell id="yK5OtRo2Y7pRDRAagn9F-3" value="" style="rounded=0;whiteSpace=wrap;html=1;" parent="1" vertex="1">
          <mxGeometry x="935" y="390" width="10" height="30" as="geometry" />
        </mxCell>
        <mxCell id="yK5OtRo2Y7pRDRAagn9F-4" value="" style="endArrow=none;html=1;" parent="1" target="yK5OtRo2Y7pRDRAagn9F-3" edge="1">
          <mxGeometry width="50" height="50" relative="1" as="geometry">
            <mxPoint x="940" y="680" as="sourcePoint" />
            <mxPoint x="940" y="180" as="targetPoint" />
          </mxGeometry>
        </mxCell>
        <mxCell id="yK5OtRo2Y7pRDRAagn9F-5" value="" style="endArrow=classic;html=1;exitX=0.6;exitY=0.167;exitDx=0;exitDy=0;exitPerimeter=0;entryX=0;entryY=0;entryDx=0;entryDy=0;" parent="1" target="yK5OtRo2Y7pRDRAagn9F-3" edge="1">
          <mxGeometry width="50" height="50" relative="1" as="geometry">
            <mxPoint x="495" y="390.03999999999996" as="sourcePoint" />
            <mxPoint x="920" y="400" as="targetPoint" />
          </mxGeometry>
        </mxCell>
        <mxCell id="yK5OtRo2Y7pRDRAagn9F-6" value="isAuthenticateUser = retrieve(token : string)" style="text;html=1;strokeColor=none;fillColor=none;align=center;verticalAlign=middle;whiteSpace=wrap;rounded=0;" parent="1" vertex="1">
          <mxGeometry x="680" y="370" width="240" height="20" as="geometry" />
        </mxCell>
        <mxCell id="yK5OtRo2Y7pRDRAagn9F-9" value="" style="endArrow=none;html=1;" parent="1" edge="1">
          <mxGeometry width="50" height="50" relative="1" as="geometry">
            <mxPoint x="313.38" y="530" as="sourcePoint" />
            <mxPoint x="313.38" y="530" as="targetPoint" />
          </mxGeometry>
        </mxCell>
        <mxCell id="yK5OtRo2Y7pRDRAagn9F-10" value="" style="verticalLabelPosition=bottom;verticalAlign=top;html=1;shape=card;whiteSpace=wrap;size=20;arcSize=12;rotation=-180;" parent="1" vertex="1">
          <mxGeometry x="368" y="440" width="46" height="40" as="geometry" />
        </mxCell>
        <mxCell id="yK5OtRo2Y7pRDRAagn9F-11" value="&lt;font style=&quot;font-size: 18px&quot;&gt;alt&lt;/font&gt;" style="text;html=1;strokeColor=none;fillColor=none;align=center;verticalAlign=middle;whiteSpace=wrap;rounded=0;" parent="1" vertex="1">
          <mxGeometry x="366" y="450" width="45" height="20" as="geometry" />
        </mxCell>
        <mxCell id="yK5OtRo2Y7pRDRAagn9F-14" value="isAuthenticateUser == true" style="text;html=1;strokeColor=none;fillColor=none;align=center;verticalAlign=middle;whiteSpace=wrap;rounded=0;" parent="1" vertex="1">
          <mxGeometry x="407.75" y="440" width="162.5" height="30" as="geometry" />
        </mxCell>
        <mxCell id="yK5OtRo2Y7pRDRAagn9F-15" value="" style="rounded=0;whiteSpace=wrap;html=1;" parent="1" vertex="1">
          <mxGeometry x="484" y="470" width="10" height="100" as="geometry" />
        </mxCell>
        <mxCell id="yK5OtRo2Y7pRDRAagn9F-16" value="" style="endArrow=none;html=1;" parent="1" edge="1">
          <mxGeometry width="50" height="50" relative="1" as="geometry">
            <mxPoint x="788" y="680" as="sourcePoint" />
            <mxPoint x="787.88" y="540" as="targetPoint" />
          </mxGeometry>
        </mxCell>
        <mxCell id="yK5OtRo2Y7pRDRAagn9F-18" value="" style="endArrow=none;html=1;exitX=0;exitY=0.695;exitDx=0;exitDy=0;dashed=1;fontStyle=1;fontSize=12;entryX=1.001;entryY=0.7;entryDx=0;entryDy=0;exitPerimeter=0;entryPerimeter=0;" parent="1" source="yK5OtRo2Y7pRDRAagn9F-8" target="yK5OtRo2Y7pRDRAagn9F-8" edge="1">
          <mxGeometry width="50" height="50" relative="1" as="geometry">
            <mxPoint x="330" y="568" as="sourcePoint" />
            <mxPoint x="1095" y="568" as="targetPoint" />
          </mxGeometry>
        </mxCell>
        <mxCell id="yK5OtRo2Y7pRDRAagn9F-19" value="[else]" style="text;html=1;strokeColor=none;fillColor=none;align=center;verticalAlign=middle;whiteSpace=wrap;rounded=0;fontSize=12;" parent="1" vertex="1">
          <mxGeometry x="444" y="590" width="40" height="20" as="geometry" />
        </mxCell>
        <mxCell id="yK5OtRo2Y7pRDRAagn9F-32" style="edgeStyle=orthogonalEdgeStyle;rounded=0;orthogonalLoop=1;jettySize=auto;html=1;exitX=0.5;exitY=1;exitDx=0;exitDy=0;fontSize=12;" parent="1" source="gGBzYbK5EXgPb6j0K3wS-14" target="gGBzYbK5EXgPb6j0K3wS-14" edge="1">
          <mxGeometry relative="1" as="geometry" />
        </mxCell>
        <mxCell id="6VNVLIJxWMuUqnMz0RnT-2" value="isAuthenticateUser == false" style="text;html=1;strokeColor=none;fillColor=none;align=center;verticalAlign=middle;whiteSpace=wrap;rounded=0;" parent="1" vertex="1">
          <mxGeometry x="407.75" y="610" width="162.5" height="30" as="geometry" />
        </mxCell>
        <mxCell id="6VNVLIJxWMuUqnMz0RnT-3" value="" style="endArrow=none;html=1;" parent="1" edge="1">
          <mxGeometry width="50" height="50" relative="1" as="geometry">
            <mxPoint x="489" y="680" as="sourcePoint" />
            <mxPoint x="488.5" y="650" as="targetPoint" />
          </mxGeometry>
        </mxCell>
      </root>
    </mxGraphModel>
  </diagram>
</mxfile>
